<svg width="203" height="116" viewBox="0 0 203 116" fill="none" xmlns="http://www.w3.org/2000/svg">
  <!-- Background rectangle with muted color -->
  <rect width="203" height="116" fill="#f5f5f5"/>
  
  <!-- Image icon placeholder -->
  <rect x="60" y="25" width="83" height="66" rx="4" fill="#e0e0e0" stroke="#bdbdbd" stroke-width="1"/>
  
  <!-- Mountain/landscape icon -->
  <path d="M70 75 L85 60 L100 70 L115 55 L130 65 L145 50 L160 60 L175 70 L190 80 L70 80 Z" fill="#cccccc"/>
  
  <!-- Sun icon -->
  <circle cx="160" cy="35" r="8" fill="#ffd54f"/>
  <path d="M160 25 L160 20 M160 50 L160 45 M175 35 L170 35 M145 35 L150 35 M168 27 L172 23 M152 47 L148 43 M168 43 L172 47 M152 23 L148 27" stroke="#ffb300" stroke-width="1.5" stroke-linecap="round"/>
  
  <!-- "No Image" text -->
  <text x="101.5" y="105" text-anchor="middle" font-family="Arial, sans-serif" font-size="12" font-weight="bold" fill="#757575">No Image</text>
  
  <!-- Subtle border -->
  <rect x="0.5" y="0.5" width="202" height="115" rx="2" fill="none" stroke="#e0e0e0" stroke-width="1"/>
</svg> 